<?xml version="1.0" standalone="no"?><!-- Generator: Gravit.io --><svg xmlns="http://www.w3.org/2000/svg" xmlns:xlink="http://www.w3.org/1999/xlink" style="isolation:isolate" viewBox="0 0 240 200" width="240" height="200"><defs><clipPath id="_clipPath_XH3a4JbMq67WkU5DG2FlJvLFtJC7CK1j"><rect width="240" height="200"/></clipPath></defs><g clip-path="url(#_clipPath_XH3a4JbMq67WkU5DG2FlJvLFtJC7CK1j)"><clipPath id="_clipPath_P0IbFi2o5uG3AFNb5PJTwvTQgiTrOhCz"><rect x="75" y="55.699" width="90" height="90" transform="matrix(1,0,0,1,0,0)" fill="rgb(255,255,255)"/></clipPath><g clip-path="url(#_clipPath_P0IbFi2o5uG3AFNb5PJTwvTQgiTrOhCz)"><g id="Group"><path d=" M 152.223 122.678 L 137.573 131.137 L 122.923 139.595 C 121.31 140.526 118.69 140.526 117.077 139.595 L 102.427 131.137 L 87.777 122.678 C 86.164 121.747 84.854 119.478 84.854 117.616 L 84.854 100.699 L 84.854 83.783 C 84.854 81.92 86.164 79.652 87.777 78.72 L 102.427 70.262 L 117.077 61.804 C 118.69 60.872 121.31 60.872 122.923 61.804 L 137.573 70.262 L 152.223 78.72 C 153.836 79.652 155.146 81.92 155.146 83.783 L 155.146 100.699 L 155.146 117.616 C 155.146 119.478 153.836 121.747 152.223 122.678 Z " fill="rgb(240,219,79)"/><g id="Group"><g transform="matrix(0.225,0,0,0.225,102.801,78.254)"><text transform="matrix(1,0,0,1,0,161.865)" style="font-family:&quot;Segoe UI&quot;;font-weight:700;font-size:150px;font-style:normal;fill:#323330;stroke:none;">JS</text></g></g></g></g><g transform="matrix(1,0,0,1,25.5,20.699)"><text transform="matrix(1,0,0,1,0,21.582)" style="font-family:&quot;Segoe UI&quot;;font-weight:700;font-size:20px;font-style:normal;fill:#ffffff;stroke:none;">LEARN JAVASCRIPT</text></g><g transform="matrix(1,0,0,1,42,152.699)"><text transform="matrix(1,0,0,1,0,21.582)" style="font-family:&quot;Segoe UI&quot;;font-weight:700;font-size:20px;font-style:normal;fill:#ffffff;stroke:none;">WITH ZONAYED</text></g></g></svg>