<?xml version="1.0" standalone="no"?><!-- Generator: Gravit.io --><svg xmlns="http://www.w3.org/2000/svg" xmlns:xlink="http://www.w3.org/1999/xlink" style="isolation:isolate" viewBox="0 0 200 200" width="200" height="200"><defs><clipPath id="_clipPath_rReDROgOsXTJE3vbnGPprO62GomZ9pmU"><rect width="200" height="200"/></clipPath></defs><g clip-path="url(#_clipPath_rReDROgOsXTJE3vbnGPprO62GomZ9pmU)"><clipPath id="_clipPath_79CDDL2ItoAigIlVfb9Gmol3AIc5Kgnv"><rect x="0" y="0" width="200" height="200" transform="matrix(1,0,0,1,0,0)" fill="rgb(255,255,255)"/></clipPath><g clip-path="url(#_clipPath_79CDDL2ItoAigIlVfb9Gmol3AIc5Kgnv)"><g id="Group"><path d=" M 171.607 148.842 L 139.051 167.639 L 106.495 186.434 C 102.91 188.504 97.09 188.504 93.505 186.434 L 60.949 167.639 L 28.393 148.842 C 24.809 146.773 21.898 141.732 21.898 137.592 L 21.898 100 L 21.898 62.408 C 21.898 58.269 24.809 53.228 28.393 51.158 L 60.949 32.361 L 93.505 13.566 C 97.09 11.496 102.91 11.496 106.495 13.566 L 139.051 32.361 L 171.607 51.158 C 175.191 53.228 178.102 58.269 178.102 62.408 L 178.102 100 L 178.102 137.592 C 178.102 141.732 175.191 146.773 171.607 148.842 Z " fill="rgb(240,219,79)"/><g id="Group"><g transform="matrix(0.5,0,0,0.5,61.781,50.122)"><text transform="matrix(1,0,0,1,0,161.865)" style="font-family:&quot;Segoe UI&quot;;font-weight:700;font-size:150px;font-style:normal;fill:#323330;stroke:none;">JS</text></g></g></g></g></g></svg>